<svg xmlns="http://www.w3.org/2000/svg" viewBox="0 0 128 128" width="128" height="128">
  <!-- Arbre formant un profil humain -->
  <defs>
    <linearGradient id="skyGradient" x1="0%" y1="0%" x2="0%" y2="100%">
      <stop offset="0%" style="stop-color:#87CEEB;stop-opacity:1" />
      <stop offset="100%" style="stop-color:#E0F6FF;stop-opacity:1" />
    </linearGradient>
    <linearGradient id="treeGradient" x1="0%" y1="0%" x2="0%" y2="100%">
      <stop offset="0%" style="stop-color:#8B4513;stop-opacity:1" />
      <stop offset="100%" style="stop-color:#654321;stop-opacity:1" />
    </linearGradient>
    <linearGradient id="grassGradient" x1="0%" y1="0%" x2="0%" y2="100%">
      <stop offset="0%" style="stop-color:#90EE90;stop-opacity:1" />
      <stop offset="100%" style="stop-color:#228B22;stop-opacity:1" />
    </linearGradient>
  </defs>
  
  <!-- Ciel -->
  <rect width="128" height="80" fill="url(#skyGradient)"/>
  
  <!-- Herbe -->
  <rect y="80" width="128" height="48" fill="url(#grassGradient)"/>
  
  <!-- Tronc de l'arbre -->
  <rect x="58" y="80" width="12" height="48" fill="url(#treeGradient)" rx="2"/>
  
  <!-- Branches formant le profil de tête (côté droit - visage) -->
  <path d="M 70 30 
           Q 75 25 78 30 
           Q 80 35 79 40 
           Q 78 45 76 48 
           Q 74 50 72 52 
           Q 70 54 68 55 
           Q 66 56 64 56 
           Q 62 56 60 55 
           Q 58 54 56 52 
           Q 54 50 52 48 
           Q 50 45 49 40 
           Q 48 35 50 30 
           Q 52 25 58 30 
           Z" 
        fill="#2d5016" opacity="0.9"/>
  
  <!-- Branches formant la nuque (côté gauche) -->
  <path d="M 58 30 
           Q 52 28 48 32 
           Q 46 36 47 40 
           Q 48 44 50 48 
           Q 52 52 54 55 
           Q 56 58 58 60 
           Q 60 62 64 62 
           Q 68 62 70 60 
           Q 72 58 74 55 
           Q 76 52 78 48 
           Q 80 44 81 40 
           Q 82 36 80 32 
           Q 78 28 70 30 
           Z" 
        fill="#1a3d0d" opacity="0.8"/>
  
  <!-- Détails des branches (texture) -->
  <circle cx="76" cy="35" r="1.5" fill="#1a3d0d" opacity="0.6"/>
  <circle cx="74" cy="40" r="1" fill="#1a3d0d" opacity="0.6"/>
  <circle cx="52" cy="35" r="1.5" fill="#1a3d0d" opacity="0.6"/>
  <circle cx="54" cy="40" r="1" fill="#1a3d0d" opacity="0.6"/>
  
  <!-- Branches principales du tronc -->
  <path d="M 64 70 L 50 60" stroke="#2d5016" stroke-width="2" stroke-linecap="round" opacity="0.7"/>
  <path d="M 64 70 L 78 60" stroke="#2d5016" stroke-width="2" stroke-linecap="round" opacity="0.7"/>
  <path d="M 64 65 L 48 55" stroke="#2d5016" stroke-width="2" stroke-linecap="round" opacity="0.7"/>
  <path d="M 64 65 L 80 55" stroke="#2d5016" stroke-width="2" stroke-linecap="round" opacity="0.7"/>
</svg>

